# xmcd CD database file generated by OrangeCD 5.2
#
# Track frame offsets:
#	150
#	13909
#	27272
#	39562
#	53750
#	68465
#	82077
#	96204
#	109970
#	122940
#	137172
#	149160
#	161640
#	175270
#	186327
#	199245
#
# Disc length: 2813 seconds
#
# Revision: 1
# Processed by: cddbd v1.5.1PL0 Copyright (c) Steve Scherf et al.
# Submitted via: OrangeCD 5.2
#
DISCID=f00afb10
DTITLE=Count Basie - Masters Of Jazz - Count Basie
DYEAR=1900
DGENRE=Jazz
TTITLE0=Jumpin' At The Woodside
TTITLE1=One O'clock Jump
TTITLE2=Swingin' The Blues
TTITLE3=Topsy
TTITLE4=EveryTub
TTITLE5=Boogie Woogie
TTITLE6=Dickie's Dream
TTITLE7=Twelfth Street Rag
TTITLE8=Red Wagon
TTITLE9=Oh! Lady Be Good
TTITLE10=Jive At Five
TTITLE11=The Fives
TTITLE12=Texas Shuffle
TTITLE13=Clap Hands! Here Comes Charley
TTITLE14=Oh! Red
TTITLE15=Tickle Toe
EXTD=
EXTT0=
EXTT1=
EXTT2=
EXTT3=
EXTT4=
EXTT5=
EXTT6=
EXTT7=
EXTT8=
EXTT9=
EXTT10=
EXTT11=
EXTT12=
EXTT13=
EXTT14=
EXTT15=
PLAYORDER=
